    <svg xmlns="http://www.w3.org/2000/svg" class="d-none">
        <symbol id="logOut" viewBox="0 0 24 24" style="fill:currentColor">
            <path d="m2 12 5 4v-3h9v-2H7V8z"></path>
            <path
                d="M13.001 2.999a8.938 8.938 0 0 0-6.364 2.637L8.051 7.05c1.322-1.322 3.08-2.051 4.95-2.051s3.628.729 4.95 2.051 2.051 3.08 2.051 4.95-.729 3.628-2.051 4.95-3.08 2.051-4.95 2.051-3.628-.729-4.95-2.051l-1.414 1.414c1.699 1.7 3.959 2.637 6.364 2.637s4.665-.937 6.364-2.637c1.7-1.699 2.637-3.959 2.637-6.364s-.937-4.665-2.637-6.364a8.938 8.938 0 0 0-6.364-2.637z">
            </path>
        </symbol>
        <symbol id="userIcon" viewBox="0 0 16 16" style="fill:currentColor">
            <path
                d="M8 8a3 3 0 1 0 0-6 3 3 0 0 0 0 6m2-3a2 2 0 1 1-4 0 2 2 0 0 1 4 0m4 8c0 1-1 1-1 1H3s-1 0-1-1 1-4 6-4 6 3 6 4m-1-.004c-.001-.246-.154-.986-.832-1.664C11.516 10.68 10.289 10 8 10s-3.516.68-4.168 1.332c-.678.678-.83 1.418-.832 1.664z" />
        </symbol>
        <symbol id="moon-fill" viewBox="0 0 16 16" style="fill:currentColor">
            <path
                d="M6 .278a.768.768 0 0 1 .08.858 7.208 7.208 0 0 0-.878 3.46c0 4.021 3.278 7.277 7.318 7.277.527 0 1.04-.055 1.533-.16a.787.787 0 0 1 .81.316.733.733 0 0 1-.031.893A8.349 8.349 0 0 1 8.344 16C3.734 16 0 12.286 0 7.71 0 4.266 2.114 1.312 5.124.06A.752.752 0 0 1 6 .278z" />
        </symbol>
        <symbol id="sun-fill" viewBox="0 0 16 16" style="fill:currentColor">
            <path
                d="M8 12a4 4 0 1 0 0-8 4 4 0 0 0 0 8zM8 0a.5.5 0 0 1 .5.5v2a.5.5 0 0 1-1 0v-2A.5.5 0 0 1 8 0zm0 13a.5.5 0 0 1 .5.5v2a.5.5 0 0 1-1 0v-2A.5.5 0 0 1 8 13zm8-5a.5.5 0 0 1-.5.5h-2a.5.5 0 0 1 0-1h2a.5.5 0 0 1 .5.5zM3 8a.5.5 0 0 1-.5.5h-2a.5.5 0 0 1 0-1h2A.5.5 0 0 1 3 8zm10.657-5.657a.5.5 0 0 1 0 .707l-1.414 1.415a.5.5 0 1 1-.707-.708l1.414-1.414a.5.5 0 0 1 .707 0zm-9.193 9.193a.5.5 0 0 1 0 .707L3.05 13.657a.5.5 0 0 1-.707-.707l1.414-1.414a.5.5 0 0 1 .707 0zm9.193 2.121a.5.5 0 0 1-.707 0l-1.414-1.414a.5.5 0 0 1 .707-.707l1.414 1.414a.5.5 0 0 1 0 .707zM4.464 4.465a.5.5 0 0 1-.707 0L2.343 3.05a.5.5 0 1 1 .707-.707l1.414 1.414a.5.5 0 0 1 0 .708z" />
        </symbol>
        <symbol id="outlook" viewBox="0 0 32 32" style="fill:currentColor">
            <path d="M19.484,7.937v5.477L21.4,14.619a.489.489,0,0,0,.21,0l8.238-5.554a1.174,1.174,0,0,0-.959-1.128Z">
            </path>
            <path
                d="M19.484,15.457l1.747,1.2a.522.522,0,0,0,.543,0c-.3.181,8.073-5.378,8.073-5.378V21.345a1.408,1.408,0,0,1-1.49,1.555H19.483V15.457Z">
            </path>
            <path
                d="M10.44,12.932a1.609,1.609,0,0,0-1.42.838,4.131,4.131,0,0,0-.526,2.218A4.05,4.05,0,0,0,9.02,18.2a1.6,1.6,0,0,0,2.771.022,4.014,4.014,0,0,0,.515-2.2,4.369,4.369,0,0,0-.5-2.281A1.536,1.536,0,0,0,10.44,12.932Z">
            </path>
            <path
                d="M2.153,5.155V26.582L18.453,30V2ZM13.061,19.491a3.231,3.231,0,0,1-2.7,1.361,3.19,3.19,0,0,1-2.64-1.318A5.459,5.459,0,0,1,6.706,16.1a5.868,5.868,0,0,1,1.036-3.616A3.267,3.267,0,0,1,10.486,11.1a3.116,3.116,0,0,1,2.61,1.321,5.639,5.639,0,0,1,1,3.484A5.763,5.763,0,0,1,13.061,19.491Z">
            </path>
        </symbol>
        <symbol id="github" viewbox="0 0 20 20" style="fill:currentColor">
            <g transform="translate(-140.000000, -7559.000000)">
                <g transform="translate(56.000000, 160.000000)">
                    <path
                        d="M94,7399 C99.523,7399 104,7403.59 104,7409.253 C104,7413.782 101.138,7417.624 97.167,7418.981 C96.66,7419.082 96.48,7418.762 96.48,7418.489 C96.48,7418.151 96.492,7417.047 96.492,7415.675 C96.492,7414.719 96.172,7414.095 95.813,7413.777 C98.04,7413.523 100.38,7412.656 100.38,7408.718 C100.38,7407.598 99.992,7406.684 99.35,7405.966 C99.454,7405.707 99.797,7404.664 99.252,7403.252 C99.252,7403.252 98.414,7402.977 96.505,7404.303 C95.706,7404.076 94.85,7403.962 94,7403.958 C93.15,7403.962 92.295,7404.076 91.497,7404.303 C89.586,7402.977 88.746,7403.252 88.746,7403.252 C88.203,7404.664 88.546,7405.707 88.649,7405.966 C88.01,7406.684 87.619,7407.598 87.619,7408.718 C87.619,7412.646 89.954,7413.526 92.175,7413.785 C91.889,7414.041 91.63,7414.493 91.54,7415.156 C90.97,7415.418 89.522,7415.871 88.63,7414.304 C88.63,7414.304 88.101,7413.319 87.097,7413.247 C87.097,7413.247 86.122,7413.234 87.029,7413.87 C87.029,7413.87 87.684,7414.185 88.139,7415.37 C88.139,7415.37 88.726,7417.2 91.508,7416.58 C91.513,7417.437 91.522,7418.245 91.522,7418.489 C91.522,7418.76 91.338,7419.077 90.839,7418.982 C86.865,7417.627 84,7413.783 84,7409.253 C84,7403.59 88.478,7399 94,7399">
                    </path>
                </g>
            </g>
        </symbol>
        <symbol id="temas" viewBox="0 0 192 192" style="fill:currentColor">
      <g id="SVGRepo_bgCarrier" stroke-width="0"></g><g id="SVGRepo_tracerCarrier" stroke-linecap="round" stroke-linejoin="round"></g><g id="SVGRepo_iconCarrier"> <g clip-path="url(#a)"> <path stroke="#000000" stroke-linecap="round" stroke-linejoin="round" stroke-width="5.568" d="M96 22v30m24-30v36m-42 76v24a11.998 11.998 0 0 0 12 12h12c3.183 0 6.235-1.264 8.485-3.515A11.996 11.996 0 0 0 114 158v-24M48 96v20a11.998 11.998 0 0 0 12 12h72c3.183 0 6.235-1.264 8.485-3.515A11.996 11.996 0 0 0 144 116V96.149L48 96Zm0 0V46a24 24 0 0 1 24-24h72v74H48Z"></path> </g> <defs> <clipPath id="a"> <path fill="#ffffff" d="M0 0h192v192H0z"></path> </clipPath> </defs> </g>
         
        </symbol>    
    </svg>
